<svg width="24" height="24" viewBox="0 0 24 24" fill="none" xmlns="http://www.w3.org/2000/svg">
<path d="M22.3037 3.48552L23.1826 2.55974C23.6279 2.09099 23.6631 1.44645 23.2178 1.00114L22.9131 0.684736C22.5146 0.286299 21.8467 0.344892 21.4131 0.778486L20.499 1.66911L22.3037 3.48552ZM8.42871 15.9543L10.8311 14.9465L21.4482 4.32927L19.6436 2.5363L9.02637 13.1652L7.97168 15.4855C7.85449 15.755 8.15918 16.0597 8.42871 15.9543ZM3.97559 23.8175H17.6279C19.8779 23.8175 21.2021 22.505 21.2021 19.9972V7.62224L18.8584 9.95427V19.7863C18.8584 20.9113 18.2607 21.4738 17.4756 21.4738H4.12793C3.0498 21.4738 2.46387 20.9113 2.46387 19.7863V6.76677C2.46387 5.64177 3.0498 5.07927 4.12793 5.07927H14.0771L16.4092 2.73552H3.97559C1.44434 2.73552 0.120117 4.04802 0.120117 6.55583V19.9972C0.120117 22.505 1.44434 23.8175 3.97559 23.8175Z" fill="white"/>
</svg>
