<svg width="32" height="33" viewBox="0 0 32 33" fill="none" xmlns="http://www.w3.org/2000/svg">
<path d="M15.9846 32.5523C24.4563 32.5523 31.4489 25.4082 31.4489 16.7681C31.4489 8.12801 24.4414 0.983887 15.9696 0.983887C7.51279 0.983887 0.535156 8.12801 0.535156 16.7681C0.535156 25.4082 7.52773 32.5523 15.9846 32.5523ZM8.75293 16.7834C8.75293 15.8827 9.38047 15.2569 10.2471 15.2569H14.5054V10.9063C14.5054 10.0209 15.103 9.39502 15.9547 9.39502C16.8362 9.39502 17.4488 10.0209 17.4488 10.9063V15.2569H21.7221C22.5737 15.2569 23.2013 15.8827 23.2013 16.7834C23.2013 17.6535 22.5737 18.2794 21.7221 18.2794H17.4488V22.63C17.4488 23.5001 16.8362 24.1412 15.9547 24.1412C15.103 24.1412 14.5054 23.5001 14.5054 22.63V18.2794H10.2471C9.38047 18.2794 8.75293 17.6535 8.75293 16.7834Z" fill="white"/>
</svg>
