<svg width="36" height="36" viewBox="0 0 36 36" fill="none" xmlns="http://www.w3.org/2000/svg">
<path d="M17.9999 1.71423C13.6807 1.71423 9.53837 3.43004 6.48421 6.48421C3.43004 9.53837 1.71423 13.6807 1.71423 17.9999C1.71423 22.3192 3.43004 26.4615 6.48421 29.5157C9.53837 32.5698 13.6807 34.2857 17.9999 34.2857C22.3192 34.2857 26.4615 32.5698 29.5157 29.5157C32.5698 26.4615 34.2857 22.3192 34.2857 17.9999C34.2857 13.6807 32.5698 9.53837 29.5157 6.48421C26.4615 3.43004 22.3192 1.71423 17.9999 1.71423V1.71423Z" fill="#039BE5"/>
<path d="M20.2045 22.3166H24.4191L25.0808 18.0352H20.2037V15.6952C20.2037 13.9166 20.7848 12.3395 22.4485 12.3395H25.122V8.60316C24.6523 8.53974 23.6588 8.40088 21.7817 8.40088C17.862 8.40088 15.564 10.4709 15.564 15.1869V18.0352H11.5345V22.3166H15.564V34.0843C16.362 34.2043 17.1703 34.2857 18 34.2857C18.75 34.2857 19.482 34.2172 20.2045 34.1194V22.3166Z" fill="white"/>
</svg>
