<svg width="36" height="36" viewBox="0 0 36 36" fill="none" xmlns="http://www.w3.org/2000/svg">
<circle cx="18" cy="18" r="17" fill="white"/>
<path d="M27.727 16.4001H26.8927V16.3571H17.5713V20.5H23.4246C22.5706 22.9116 20.276 24.6428 17.5713 24.6428C14.1394 24.6428 11.357 21.8604 11.357 18.4286C11.357 14.9967 14.1394 12.2143 17.5713 12.2143C19.1554 12.2143 20.5966 12.8119 21.6939 13.788L24.6234 10.8585C22.7736 9.13457 20.2993 8.07141 17.5713 8.07141C11.8515 8.07141 7.21411 12.7088 7.21411 18.4286C7.21411 24.1483 11.8515 28.7857 17.5713 28.7857C23.291 28.7857 27.9284 24.1483 27.9284 18.4286C27.9284 17.7341 27.8569 17.0562 27.727 16.4001Z" fill="#FFC107"/>
<path d="M8.40857 13.6078L11.8114 16.1034C12.7322 13.8238 14.9621 12.2143 17.5715 12.2143C19.1557 12.2143 20.5969 12.8119 21.6942 13.788L24.6237 10.8585C22.7739 9.13457 20.2996 8.07141 17.5715 8.07141C13.5934 8.07141 10.1434 10.3174 8.40857 13.6078Z" fill="#FF3D00"/>
<path d="M17.5713 28.7857C20.2465 28.7857 22.6773 27.7619 24.5152 26.097L21.3097 23.3845C20.2698 24.1721 18.9773 24.6428 17.5713 24.6428C14.8774 24.6428 12.59 22.9251 11.7283 20.528L8.35083 23.1302C10.0649 26.4843 13.546 28.7857 17.5713 28.7857Z" fill="#4CAF50"/>
<path d="M27.7271 16.4002H26.8928V16.3572H17.5714V20.5H23.4248C23.0146 21.6585 22.2694 22.6574 21.3083 23.385C21.3088 23.3845 21.3093 23.3845 21.3098 23.384L24.5154 26.0965C24.2885 26.3026 27.9286 23.6072 27.9286 18.4286C27.9286 17.7342 27.8571 17.0563 27.7271 16.4002Z" fill="#1976D2"/>
</svg>
