<svg width="36" height="36" viewBox="0 0 36 36" fill="none" xmlns="http://www.w3.org/2000/svg">
<path d="M18 0.857178C13.4535 0.857178 9.09311 2.66329 5.8782 5.8782C2.66329 9.09311 0.857178 13.4535 0.857178 18C0.857178 22.5466 2.66329 26.907 5.8782 30.1219C9.09311 33.3368 13.4535 35.1429 18 35.1429C22.5466 35.1429 26.907 33.3368 30.1219 30.1219C33.3368 26.907 35.1429 22.5466 35.1429 18C35.1429 13.4535 33.3368 9.09311 30.1219 5.8782C26.907 2.66329 22.5466 0.857178 18 0.857178V0.857178Z" fill="#1976D2"/>
<path d="M28.2317 12.8923C28.2711 12.7629 28.2899 12.6429 28.2848 12.5357C28.2719 12.2254 28.0585 12 27.5562 12H25.3122C24.7457 12 24.4842 12.3429 24.3317 12.6866C24.3317 12.6866 22.9328 15.5657 21.3205 17.4643C20.7977 18.0137 20.5319 18 20.2491 18C20.0974 18 19.7142 17.8166 19.7142 17.3134V12.8691C19.7142 12.2743 19.5659 12 19.0868 12H15.1019C14.7531 12 14.5714 12.2743 14.5714 12.5494C14.5714 13.1211 15.3411 13.2583 15.4285 14.8603V17.9657C15.4285 18.72 15.2974 18.8571 15.0145 18.8571C14.2517 18.8571 12.7499 16.2857 11.7445 12.9154C11.5268 12.252 11.3091 12 10.7425 12H8.47709C7.82309 12 7.71423 12.3206 7.71423 12.6634C7.71423 13.2814 8.22852 16.6226 11.0357 20.4643C13.0714 23.25 15.7534 24.8571 18.1277 24.8571C19.5659 24.8571 19.7134 24.4911 19.7134 23.9194V21.372C19.7142 20.6854 19.8711 20.5714 20.3288 20.5714C20.6554 20.5714 21.3214 20.7857 22.6071 22.2857C24.0899 24.0154 24.3591 24.8571 25.2094 24.8571H27.4534C27.9745 24.8571 28.2737 24.6386 28.2857 24.2143C28.2882 24.1063 28.2728 23.9854 28.2377 23.8509C28.0714 23.3571 27.3085 22.1503 26.3571 21C25.8299 20.3631 25.3097 19.7323 25.0705 19.3894C24.9102 19.1657 24.8494 19.008 24.8571 18.8571C24.8648 18.6986 24.9471 18.5477 25.0705 18.3369C25.0482 18.3369 27.9488 14.2646 28.2317 12.8923Z" fill="white"/>
</svg>
